<svg 
   xmlns="http://www.w3.org/2000/svg"
   viewBox="0 0 24.791 9.461"
   height="35.757"
   width="93.7">
   <path 
      style="fill:#3b3a3c;fill-opacity:1;fill-rule:nonzero;stroke:none;stroke-width:.35277775"
      d="M92.682 62.52V54.9h23.12V62.518c0 .404-.33.733-.735.733l-3.817.001a2.146 2.146 0 1 0-4.27 0h-7.025a2.146 2.146 0 1 0-4.271 0l-2.267.002a.735.735 0 0 1-.735-.734m8.851-5.396h.006v-1.19h-3.48v3.489c0 .13.107.237.239.237l2.997-.001a.237.237 0 0 0 .238-.237zm4.447 0h.005v-1.19h-3.539v1.19h.003v4.462a.25.25 0 0 0 .25.249h3.033a.249.249 0 0 0 .248-.249zm4.349 0h.004v-1.19h-3.48v1.19h.002v2.299c0 .13.107.237.238.237l2.998-.001a.237.237 0 0 0 .238-.237zm4.264.649v-1.838h-2.857v1.701h-.006v3.95a.25.25 0 0 0 .25.249h2.366c.137 0 .249-.112.249-.249v-3.813zm-20.842-.649v2.299c0 .13.107.237.238.237l2.403-.001a.237.237 0 0 0 .239-.237v-2.298h.005v-1.19H93.75zm23.722 1.892h-1v-2.803h1zm-7.044 4.033a1.313 1.313 0 1 1-2.626-.001 1.313 1.313 0 0 1 2.626 0m-11.297 0a1.312 1.312 0 1 1-2.625 0 1.312 1.312 0 0 1 2.625 0"
      transform="translate(-92.682 -54.9)"
   />
</svg>


