<?xml version="1.0" encoding="UTF-8" standalone="no"?>
<svg
   xmlns:dc="http://purl.org/dc/elements/1.1/"
   xmlns:cc="http://creativecommons.org/ns#"
   xmlns:rdf="http://www.w3.org/1999/02/22-rdf-syntax-ns#"
   xmlns:svg="http://www.w3.org/2000/svg"
   xmlns="http://www.w3.org/2000/svg"
   viewBox="0 0 87.365332 66.470665"
   height="66.470665"
   width="87.365334"
   xml:space="preserve"
   id="svg3732"
   version="1.1"><metadata
     id="metadata3738"><rdf:RDF><cc:Work
         rdf:about=""><dc:format>image/svg+xml</dc:format><dc:type
           rdf:resource="http://purl.org/dc/dcmitype/StillImage" /><dc:title></dc:title></cc:Work></rdf:RDF></metadata><defs
     id="defs3736"><clipPath
       id="clipPath3772"
       clipPathUnits="userSpaceOnUse"><path
         id="path3770"
         d="M 0,0 H 841.89 V 595.276 H 0 Z" /></clipPath><clipPath
       id="clipPath3818"
       clipPathUnits="userSpaceOnUse"><path
         id="path3816"
         d="M 0,0 H 841.89 V 595.276 H 0 Z" /></clipPath><clipPath
       id="clipPath3834"
       clipPathUnits="userSpaceOnUse"><path
         id="path3832"
         d="M 0,0 H 841.89 V 595.276 H 0 Z" /></clipPath><clipPath
       id="clipPath3872"
       clipPathUnits="userSpaceOnUse"><path
         id="path3870"
         d="M 0,0 H 841.89 V 595.276 H 0 Z" /></clipPath><clipPath
       id="clipPath4099"
       clipPathUnits="userSpaceOnUse"><path
         id="path4097"
         d="M 0,0 H 841.89 V 595.276 H 0 Z" /></clipPath></defs><g
     transform="matrix(1.3333333,0,0,-1.3333333,-201.21403,536.798)"
     id="g3740"><g
       id="g4093"
       transform="translate(-174.76947,-31.570489)"><g
         clip-path="url(#clipPath4099)"
         id="g4095"><g
           transform="translate(385.235,402.668)"
           id="g4101"><path
             id="path4103"
             style="fill:#3b3a3c;fill-opacity:1;fill-rule:nonzero;stroke:none"
             d="m 0,0 h 4.389 l -8.31,12.955 c -0.838,1.18 -1.827,1.371 -2.898,1.371 H -59.555 V -9.437 l 58.019,-0.011 c 3.901,0 5.944,2.639 6.12,5.786 H 2.179 Z m -32.003,11.269 0.02,-16.462 c 0,-0.428 -0.342,-0.77 -0.771,-0.77 h -5.973 c -0.427,0 -0.772,0.342 -0.772,0.77 V 8.661 h -3.609 v -6.12 c 0,-0.404 -0.33,-0.734 -0.737,-0.734 h -11.369 c -0.403,0 -0.736,0.327 -0.736,0.731 l -0.027,8.731 z M -1.082,1.763 h -16.719 c -0.426,0 -0.771,0.345 -0.771,0.771 v 6.127 h -3.696 V -5.193 c 0,-0.428 -0.345,-0.77 -0.768,-0.77 h -5.978 c -0.425,0 -0.772,0.342 -0.772,0.77 l 0.003,16.462 22.3,0.003 z m -21.356,14.762 7.106,6.902 -8.175,8.074 -7.059,-6.852 2.156,-2.225 4.887,4.743 3.764,-3.724 -4.837,-4.695 z" /></g></g></g><path
       id="path4105"
       style="fill:#3b3a3c;fill-opacity:1;fill-rule:nonzero;stroke:none;stroke-width:0.99999994"
       d="m 150.91053,356.29051 h 65.524 v -3.545 h -65.524 z" /></g></svg>