<?xml version="1.0" encoding="UTF-8" standalone="no"?>
<svg
   xmlns:dc="http://purl.org/dc/elements/1.1/"
   xmlns:cc="http://creativecommons.org/ns#"
   xmlns:rdf="http://www.w3.org/1999/02/22-rdf-syntax-ns#"
   xmlns:svg="http://www.w3.org/2000/svg"
   xmlns="http://www.w3.org/2000/svg"
   id="svg4254"
   version="1.1"
   viewBox="0 0 24.79147 9.46068"
   height="9.46068mm"
   width="24.79147mm">
  <defs
     id="defs4248" />
  <metadata
     id="metadata4251">
    <rdf:RDF>
      <cc:Work
         rdf:about="">
        <dc:format>image/svg+xml</dc:format>
        <dc:type
           rdf:resource="http://purl.org/dc/dcmitype/StillImage" />
        <dc:title></dc:title>
      </cc:Work>
    </rdf:RDF>
  </metadata>
  <g
     transform="translate(-92.68165,-54.900383)"
     id="layer1">
    <path
       id="path4085"
       style="fill:#3b3a3c;fill-opacity:1;fill-rule:nonzero;stroke:none;stroke-width:0.35277775"
       d="m 92.68165,62.520383 v -4.60093 -0.79481 -1.18957 -0.18944 -0.84525 h 23.1207 v 1.03469 h -0.001 v 1.18957 h 0.001 v 5.39291 c 0,0.40429 -0.32949,0.73343 -0.73519,0.73343 l -3.8167,0.001 c 0.006,-0.0663 0.0109,-0.13547 0.0109,-0.20391 0,-1.18498 -0.96096,-2.14524 -2.1463,-2.14524 -1.18498,0 -2.14453,0.96026 -2.14453,2.14524 0,0.0684 0.003,0.13759 0.009,0.20391 l -7.02451,7.1e-4 c 0.005,-0.067 0.01,-0.13476 0.01,-0.20461 0,-1.18498 -0.96097,-2.14524 -2.1463,-2.14524 -1.18498,0 -2.14489,0.96026 -2.14489,2.14524 0,0.0699 0.004,0.13759 0.01,0.20461 l -2.26695,10e-4 c -0.40643,0 -0.73522,-0.32949 -0.73522,-0.73377 m 8.85155,-5.39574 h 0.006 v -1.18957 h -3.48015 v 1.18957 h 7.1e-4 v 2.29835 c 0,0.13052 0.10583,0.23706 0.23813,0.23706 l 2.99755,-10e-4 c 0.13158,0 0.23742,-0.10618 0.23742,-0.23706 z m 4.44676,0 h 0.005 v -1.18957 h -3.53867 v 1.18957 h 0.003 v 4.46193 c 0,0.13723 0.11183,0.24871 0.24906,0.24871 h 3.03318 c 0.13653,0 0.24836,-0.11148 0.24836,-0.24871 z m 4.34869,0 h 0.004 v -1.18957 h -3.48017 v 1.18957 h 0.003 v 2.29835 c 0,0.13052 0.10619,0.23706 0.23777,0.23706 l 2.99791,-10e-4 c 0.13159,0 0.23742,-0.10618 0.23742,-0.23706 z m 4.26403,0.64841 v -1.83798 h -2.85644 v 1.7018 h -0.006 v 3.9497 c 0,0.13723 0.11183,0.24871 0.24941,0.24871 h 2.36608 c 0.13758,0 0.24906,-0.11148 0.24906,-0.24871 v -3.81352 z m -20.84176,-0.64841 h 0.001 v 2.29835 c 0,0.13052 0.10583,0.23706 0.23672,0.23706 l 2.40382,-10e-4 c 0.13194,0 0.23813,-0.10618 0.23813,-0.23706 v -2.29729 h 0.005 v -1.18957 h -2.88537 z m 23.72219,1.89195 h -1.00083 v -2.80282 h 1.00083 z m -7.04462,4.0326 c 0,0.72496 -0.58808,1.31233 -1.31304,1.31233 -0.72496,0 -1.31304,-0.58737 -1.31304,-1.31233 0,-0.72602 0.58808,-1.31269 1.31304,-1.31269 0.72496,0 1.31304,0.58667 1.31304,1.31269 m -11.2963,0 c 0,0.72496 -0.58772,1.31233 -1.31304,1.31233 -0.7246,0 -1.31233,-0.58737 -1.31233,-1.31233 0,-0.72602 0.58773,-1.31269 1.31233,-1.31269 0.72532,0 1.31304,0.58667 1.31304,1.31269" />
  </g>
</svg>
