<svg
  xmlns="http://www.w3.org/2000/svg"
  height="66.471"
  width="87.365"
  xml:space="preserve">
  <defs>
    <clipPath
      id="a"
      clipPathUnits="userSpaceOnUse">
      <path d="M0 0h841.89v595.276H0Z"/>
    </clipPath>
  </defs>
  <g
    clip-path="url(#a)"
    transform="matrix(1.33333 0 0 -1.33333 -434.24 578.892)">
    <path
      style="fill:#3b3a3c;fill-opacity:1;fill-rule:nonzero;stroke:none"
      d="M0 0h4.389l-8.31 12.955c-.838 1.18-1.827 1.371-2.898 1.371h-52.736V-9.437l58.019-.011c3.901 0 5.944 2.639 6.12 5.786H2.179Zm-32.003 11.269.02-16.462a.767.767 0 0 0-.771-.77h-5.973a.769.769 0 0 0-.772.77V8.661h-3.609v-6.12a.736.736 0 0 0-.737-.734h-11.369a.736.736 0 0 0-.736.731l-.027 8.731zm30.921-9.506h-16.719a.77.77 0 0 0-.771.771v6.127h-3.696V-5.193a.768.768 0 0 0-.768-.77h-5.978a.77.77 0 0 0-.772.77l.003 16.462 22.3.003zm-21.356 14.762 7.106 6.902-8.175 8.074-7.059-6.852 2.156-2.225 4.887 4.743 3.764-3.724-4.837-4.695z"
      transform="translate(385.235 402.668)"
    />
  </g>
  <path
    style="fill:#3b3a3c;fill-opacity:1;fill-rule:nonzero;stroke:none;stroke-width:.99999994"
    d="M150.91 356.29h65.525v-3.544H150.91z"
    transform="matrix(1.33333 0 0 -1.33333 -201.214 536.798)"
  />
</svg>

